<svg width="375" height="695" viewBox="0 0 375 695" fill="none" xmlns="http://www.w3.org/2000/svg">
<g opacity="0.35">
<path fill-rule="evenodd" clip-rule="evenodd" d="M355.719 414.295C331.443 461.756 308.431 525.644 255.973 535.133C201.643 544.961 164.117 479.287 113.098 458.183C73.28 441.711 20.2341 456.851 -9.24517 425.422C-38.7086 394.01 -15.2842 340.052 -34.0597 301.293C-62.7132 242.142 -166.765 205.929 -145.735 143.658C-125.197 82.8458 -19.5042 125.485 36.1278 93.4685C82.4781 66.7936 89.0939 -24.5539 142.522 -22.2354C198.295 -19.815 203.828 69.7519 248.893 102.702C285.8 129.686 347.67 111.682 375.398 148.034C403.085 184.333 388.895 236.307 385.53 281.836C382.126 327.904 376.754 373.17 355.719 414.295Z" stroke="#BA6C40" stroke-opacity="0.3" stroke-width="3"/>
<path opacity="0.95875" fill-rule="evenodd" clip-rule="evenodd" d="M349.923 408.991C324.006 455.575 298.778 518.621 246.021 526.274C191.381 534.199 156.17 467.256 105.919 444.384C66.6996 426.533 13.1577 439.812 -15.2068 407.373C-43.556 374.952 -18.2628 321.845 -35.6741 282.454C-62.2458 222.339 -164.971 182.516 -141.78 121.018C-119.132 60.9592 -14.9919 107.261 41.7236 77.2056C88.9765 52.1645 98.7762 -38.8964 152.09 -34.7147C207.746 -30.3494 210.15 59.3561 254.037 93.8585C289.98 122.115 352.44 106.281 378.882 143.578C405.286 180.821 389.291 232.269 384.339 277.652C379.329 323.573 372.381 368.624 349.923 408.991Z" stroke="#BA6C40" stroke-opacity="0.3" stroke-width="3"/>
<path opacity="0.9175" fill-rule="evenodd" clip-rule="evenodd" d="M344.316 403.488C316.789 449.14 289.376 511.267 236.384 517.073C181.501 523.087 148.647 454.956 99.2252 430.344C60.6528 411.135 6.68013 422.537 -20.535 389.129C-47.7355 355.738 -20.6042 303.545 -36.6302 263.571C-61.0877 202.565 -162.36 159.182 -137.037 98.5303C-112.307 39.2985 -9.84649 89.2067 47.8834 61.1488C95.9815 37.7721 108.953 -52.8914 162.089 -46.8516C217.558 -40.5466 216.83 49.1882 259.487 85.2012C294.421 114.695 357.396 101.05 382.521 139.248C407.608 177.389 389.828 228.247 383.295 273.431C376.685 319.148 368.169 363.929 344.316 403.488Z" stroke="#BA6C40" stroke-opacity="0.3" stroke-width="3"/>
<path opacity="0.87625" fill-rule="evenodd" clip-rule="evenodd" d="M338.905 397.792C309.801 442.456 280.236 503.588 227.074 507.542C172.015 511.637 141.559 442.4 93.0255 416.078C55.1471 395.535 0.809319 405.047 -25.2233 370.709C-51.2419 336.389 -22.3056 285.175 -36.9268 244.666C-59.2403 182.844 -158.937 135.953 -131.513 76.2219C-104.731 17.8891 -4.07415 71.3428 54.5998 45.3167C103.484 23.6328 119.612 -66.5227 172.505 -58.6321C227.72 -50.3951 223.861 39.2595 265.235 76.7393C299.119 107.434 362.531 95.9954 386.308 135.047C410.049 174.041 390.504 224.247 382.398 269.175C374.197 314.634 364.123 359.091 338.905 397.792Z" stroke="#BA6C40" stroke-opacity="0.3" stroke-width="3"/>
<path opacity="0.835" fill-rule="evenodd" clip-rule="evenodd" d="M333.695 391.912C303.05 435.532 271.37 495.596 218.102 497.692C162.934 499.862 134.912 429.605 87.3276 401.606C50.1892 379.753 -4.44742 387.363 -29.2658 352.137C-54.0708 316.93 -23.3648 266.757 -36.5633 225.762C-56.7057 163.199 -154.705 112.857 -125.213 54.1198C-96.4117 -3.24271 2.31818 53.6913 61.8647 29.7287C111.476 9.76411 130.741 -79.7736 183.326 -70.042C238.22 -59.883 231.234 29.5824 271.275 68.4832C304.067 100.342 367.84 91.1232 390.239 130.98C412.605 170.779 391.32 220.273 381.651 264.891C371.868 310.036 360.249 354.114 333.695 391.912Z" stroke="#BA6C40" stroke-opacity="0.3" stroke-width="3"/>
<path opacity="0.79375" fill-rule="evenodd" clip-rule="evenodd" d="M328.694 385.853C296.546 428.377 262.788 487.299 209.48 487.534C154.269 487.778 128.717 416.586 82.1383 386.943C45.7851 363.807 -9.0838 369.506 -32.6577 333.435C-56.2189 297.384 -23.7806 248.313 -35.5403 206.883C-53.487 143.655 -149.67 89.9235 -118.146 32.2511C-87.3601 -24.0713 9.32266 36.2736 69.6692 14.4038C119.947 -3.81724 142.325 -92.6281 194.538 -81.0672C249.044 -68.9987 238.94 20.1684 277.599 60.443C309.259 93.4266 373.315 86.4392 394.31 127.054C415.273 167.609 392.274 216.33 381.054 260.583C369.701 305.359 356.551 349.005 328.694 385.853Z" stroke="#BA6C40" stroke-opacity="0.3" stroke-width="3"/>
<path opacity="0.7525" fill-rule="evenodd" clip-rule="evenodd" d="M323.907 379.623C290.295 421 254.502 478.707 201.217 477.082C146.032 475.399 122.98 403.358 77.4638 372.108C41.9402 347.718 -13.0942 351.498 -35.3948 314.627C-57.6835 277.775 -23.5524 229.866 -33.8591 188.05C-49.5883 124.234 -143.838 67.1794 -110.32 10.6423C-77.5872 -44.5714 16.9307 19.111 78.0037 -0.639492C128.887 -17.0947 154.35 -105.071 206.129 -91.6944C260.18 -77.731 246.97 11.0291 284.2 52.6283C314.69 86.6968 378.951 81.9492 398.515 123.272C418.05 164.534 393.364 212.422 380.607 256.257C367.699 300.61 353.033 343.77 323.907 379.623Z" stroke="#BA6C40" stroke-opacity="0.3" stroke-width="3"/>
<path opacity="0.71125" fill-rule="evenodd" clip-rule="evenodd" d="M319.341 373.23C284.305 413.409 246.52 469.832 193.325 466.348C138.231 462.74 117.707 389.939 73.3099 357.119C38.6592 331.504 -16.4736 333.361 -37.4739 295.734C-58.4629 258.127 -22.6806 211.438 -31.5217 169.288C-45.0141 104.962 -137.215 44.6527 -101.745 -10.6802C-67.1047 -64.7179 25.1331 2.22431 86.8582 -15.3827C138.285 -30.0521 166.803 -117.086 218.083 -101.911C271.614 -86.0694 255.315 2.17563 291.07 45.0488C320.352 80.1606 384.74 77.6586 402.85 119.639C420.933 161.558 394.591 208.555 380.312 251.918C365.863 295.793 349.7 338.415 319.341 373.23Z" stroke="#BA6C40" stroke-opacity="0.3" stroke-width="3"/>
<path opacity="0.67" fill-rule="evenodd" clip-rule="evenodd" d="M315 366.682C278.583 405.613 238.852 460.683 185.811 455.345C130.877 449.817 112.907 376.343 69.6817 341.994C35.946 315.185 -19.218 315.117 -38.8924 276.78C-58.5561 238.464 -21.1662 193.052 -28.5309 150.619C-39.7701 85.8615 -129.81 22.3709 -92.4302 -31.6904C-55.9256 -84.4862 33.9198 -14.3658 96.2218 -29.8079C148.129 -42.6736 179.667 -128.659 230.386 -111.703C283.332 -94.0037 263.963 -6.38121 298.2 37.7137C326.239 73.8261 390.675 73.5726 407.309 116.159C423.918 158.684 395.952 204.733 380.168 247.571C364.197 290.915 346.557 332.947 315 366.682Z" stroke="#BA6C40" stroke-opacity="0.3" stroke-width="3"/>
<path opacity="0.62875" fill-rule="evenodd" clip-rule="evenodd" d="M310.891 359.986C273.138 397.623 231.509 451.272 178.686 444.086C123.979 436.644 108.583 362.589 66.5835 326.751C33.804 298.782 -21.3241 296.788 -39.6485 257.788C-57.9631 218.809 -19.0111 174.73 -24.8904 132.066C-33.8628 66.9553 -121.632 0.361098 -82.3882 -52.3628C-44.0633 -103.852 43.2802 -30.6391 106.083 -43.8975C158.408 -54.9439 192.928 -139.776 243.024 -121.061C295.32 -101.524 272.905 -14.6311 305.582 30.6318C332.344 67.7008 396.749 69.6963 411.886 112.837C427.002 155.916 397.445 200.961 380.176 243.222C362.702 285.983 343.605 327.373 310.891 359.986Z" stroke="#BA6C40" stroke-opacity="0.3" stroke-width="3"/>
<path opacity="0.5875" fill-rule="evenodd" clip-rule="evenodd" d="M307.018 353.151C267.974 389.447 224.498 441.611 171.959 432.586C117.544 423.239 104.743 348.691 64.0191 311.41C32.2357 282.313 -22.7892 278.397 -39.7414 238.781C-56.6844 199.187 -16.2178 156.494 -20.6046 113.651C-27.2992 48.2669 -112.691 -21.3499 -71.6309 -72.6721C-31.5324 -122.793 53.2028 -46.5759 116.43 -57.6345C169.108 -66.848 206.568 -150.424 255.981 -129.972C307.563 -108.622 282.129 -22.5638 313.206 23.8119C338.658 61.7923 402.955 66.0343 416.577 109.677C430.18 153.257 399.069 197.244 380.336 238.876C361.38 281.001 340.851 321.7 307.018 353.151Z" stroke="#BA6C40" stroke-opacity="0.3" stroke-width="3"/>
<path opacity="0.54625" fill-rule="evenodd" clip-rule="evenodd" d="M303.386 346.185C263.099 381.096 217.829 431.711 165.637 420.858C111.582 409.618 101.389 334.668 61.9917 295.989C31.2431 265.801 -23.6116 259.967 -39.1708 219.783C-54.7217 179.621 -12.7898 138.367 -15.6787 95.3965C-20.0874 29.8189 -102.997 -42.7356 -60.1714 -92.5936C-18.3481 -141.284 63.6755 -62.1567 127.25 -71.0019C180.218 -78.3713 220.572 -160.589 269.24 -138.425C320.046 -115.288 291.624 -30.1698 321.064 17.2623C345.175 56.1077 409.284 62.5911 421.375 106.683C433.449 150.711 400.822 193.585 380.647 234.538C360.233 275.976 338.295 315.933 303.386 346.185Z" stroke="#BA6C40" stroke-opacity="0.3" stroke-width="3"/>
<path opacity="0.505" fill-rule="evenodd" clip-rule="evenodd" d="M299.999 339.096C258.518 372.58 211.51 421.584 159.728 408.916C106.098 395.796 98.5276 320.537 60.5038 280.506C30.8275 249.263 -23.7902 241.518 -37.9376 200.816C-52.0774 160.136 -8.73132 120.37 -10.1188 77.3253C-12.2361 11.6338 -92.5634 -63.77 -48.0236 -112.103C-4.52649 -159.305 74.6857 -77.3625 138.53 -83.9835C191.723 -89.4999 234.921 -170.259 282.787 -146.41C332.754 -121.514 301.379 -37.4398 329.146 10.9909C351.886 50.6541 415.73 59.3708 426.275 103.858C436.805 148.28 402.702 189.99 381.109 230.214C359.262 270.913 335.943 310.081 299.999 339.096Z" stroke="#BA6C40" stroke-opacity="0.3" stroke-width="3"/>
<path opacity="0.46375" fill-rule="evenodd" clip-rule="evenodd" d="M296.862 331.893C254.238 363.909 205.547 411.243 154.239 396.776C101.1 381.792 96.1606 306.314 59.5571 264.981C30.9892 232.721 -23.3249 223.075 -36.0432 181.904C-48.7547 140.755 -4.04722 102.527 -3.93155 59.4592C-3.75503 -6.26627 -81.4018 -84.4275 -35.2024 -131.177C9.91557 -176.831 86.2197 -92.1747 150.257 -96.5636C203.609 -100.22 249.6 -179.423 296.604 -153.918C345.672 -127.293 311.381 -44.3649 337.441 5.00529C358.784 45.438 422.284 56.3775 431.271 101.206C440.243 145.968 404.706 186.462 381.723 225.908C358.468 265.821 333.796 304.151 296.862 331.893Z" stroke="#BA6C40" stroke-opacity="0.3" stroke-width="3"/>
<path opacity="0.4225" fill-rule="evenodd" clip-rule="evenodd" d="M293.978 324.585C250.262 355.094 199.95 400.7 149.178 384.451C96.5935 367.622 94.2915 292.018 59.1528 249.432C31.7281 216.195 -22.2162 204.659 -33.49 163.07C-44.7576 121.502 1.25681 84.8569 2.87543 41.8199C5.34563 -23.8594 -69.526 -104.683 -21.7233 -149.791C24.9605 -193.844 98.2637 -106.575 162.415 -108.727C215.863 -110.519 264.589 -188.068 310.675 -160.938C358.783 -132.617 321.62 -50.9367 345.941 -0.687109C365.859 40.4658 428.939 53.6148 436.355 98.7292C443.761 143.778 406.831 183.007 382.486 221.626C357.852 260.703 331.858 298.149 293.978 324.585Z" stroke="#BA6C40" stroke-opacity="0.3" stroke-width="3"/>
<path opacity="0.38125" fill-rule="evenodd" clip-rule="evenodd" d="M291.351 317.181C246.597 346.146 194.723 389.968 144.549 371.957C92.5845 353.303 92.9224 277.665 59.2913 233.879C33.0434 199.705 -20.4656 186.293 -30.281 144.335C-40.0911 102.4 7.17423 67.3832 10.2938 24.4288C15.0547 -41.1242 -56.9507 -124.511 -7.60273 -167.924C40.59 -210.32 110.803 -120.547 174.99 -120.458C228.468 -120.384 279.871 -196.186 324.982 -167.464C372.073 -137.481 332.081 -57.1472 354.634 -6.07944C373.104 35.7436 435.687 51.086 441.524 96.4317C447.352 141.711 409.076 179.627 383.398 217.374C357.415 255.567 330.13 292.083 291.351 317.181Z" stroke="#BA6C40" stroke-opacity="0.3" stroke-width="3"/>
<path opacity="0.34" fill-rule="evenodd" clip-rule="evenodd" d="M288.983 309.69C243.246 337.075 189.875 379.06 140.36 359.309C89.0777 338.853 92.0551 263.273 59.9727 218.339C34.9333 183.27 -18.0749 168 -26.42 125.725C-34.7606 83.4727 13.6979 50.1266 18.3147 7.30731C25.3604 -58.0396 -43.6909 -143.889 7.14206 -185.553C56.7851 -226.241 123.822 -134.073 187.967 -131.744C241.41 -129.803 295.427 -203.765 339.508 -173.486C385.524 -141.878 342.753 -62.9888 363.51 -11.1651C380.509 31.277 442.518 48.7943 446.769 94.316C451.014 139.771 411.438 176.329 384.458 213.156C357.158 250.419 328.615 285.961 288.983 309.69Z" stroke="#BA6C40" stroke-opacity="0.3" stroke-width="3"/>
<path opacity="0.29875" fill-rule="evenodd" clip-rule="evenodd" d="M286.879 302.121C240.214 327.893 185.41 367.99 136.614 346.523C86.0773 324.29 91.6906 248.859 61.1958 202.834C37.3957 166.912 -15.0474 149.801 -21.912 107.26C-28.773 64.7429 20.8198 33.1083 26.9282 -9.52384C36.2502 -74.5851 -29.763 -162.792 22.4931 -202.656C73.5258 -241.588 137.305 -147.135 201.33 -142.569C254.673 -138.765 311.238 -210.796 354.235 -178.998C399.12 -145.803 353.622 -68.4544 372.558 -15.9379C388.065 27.0717 449.425 46.7423 452.085 92.3847C454.741 137.96 413.913 173.114 385.664 208.978C357.081 245.265 327.315 279.789 286.879 302.121Z" stroke="#BA6C40" stroke-opacity="0.3" stroke-width="3"/>
<path opacity="0.2575" fill-rule="evenodd" clip-rule="evenodd" d="M285.04 294.483C237.504 318.611 181.334 356.771 133.317 333.614C83.5869 309.63 91.8293 234.442 62.9594 187.38C40.4274 150.65 -11.3866 131.718 -16.7624 88.9644C-22.1353 46.2334 28.5313 16.3488 36.1238 -26.0442C47.7107 -90.7405 -15.1839 -181.197 38.4316 -219.214C90.792 -256.341 151.236 -159.72 215.063 -152.922C268.24 -147.259 327.285 -217.272 369.146 -183.992C412.845 -149.251 364.675 -73.5374 381.766 -20.392C395.764 23.1325 456.4 44.9326 457.465 90.64C458.529 136.281 416.499 169.988 387.015 204.844C357.183 240.112 326.231 273.576 285.04 294.483Z" stroke="#BA6C40" stroke-opacity="0.3" stroke-width="3"/>
<path opacity="0.21625" fill-rule="evenodd" clip-rule="evenodd" d="M283.469 286.786C235.119 309.24 177.652 345.416 130.473 320.597C81.6098 294.893 92.4712 220.038 65.2613 171.997C44.0249 134.503 -7.09681 113.775 -10.9773 70.8593C-14.8556 27.9668 36.8231 -0.131355 45.8904 -42.2335C59.7282 -106.486 0.0288234 -199.083 54.9384 -235.205C108.563 -270.482 165.598 -171.81 229.148 -162.789C282.095 -155.273 343.548 -223.183 384.222 -188.463C426.682 -152.218 375.899 -78.2315 391.125 -24.522C403.595 19.4645 463.433 43.3675 462.903 89.0842C462.373 134.734 419.192 166.954 388.51 200.76C357.465 234.965 325.364 267.329 283.469 286.786Z" stroke="#BA6C40" stroke-opacity="0.3" stroke-width="3"/>
<path opacity="0.175" fill-rule="evenodd" clip-rule="evenodd" d="M282.167 279.038C233.063 299.791 174.368 333.94 128.084 307.49C80.1481 280.096 93.6153 205.665 68.0986 156.704C48.1836 118.491 -2.18353 95.992 -4.56389 52.9672C-6.94297 9.96545 45.6849 -16.312 56.216 -58.0721C72.2877 -121.803 15.8563 -216.426 71.9931 -250.61C126.816 -283.994 180.373 -183.392 243.57 -172.159C296.222 -162.8 360.007 -228.523 399.445 -192.405C440.614 -154.7 387.28 -82.5311 400.622 -28.3229C411.549 16.072 470.517 42.0488 468.391 87.7192C466.269 133.323 421.99 164.016 390.147 196.731C357.927 229.832 324.716 261.055 282.167 279.038Z" stroke="#BA6C40" stroke-opacity="0.3" stroke-width="3"/>
<path opacity="0.13375" fill-rule="evenodd" clip-rule="evenodd" d="M281.136 271.25C231.339 290.276 171.487 322.356 126.154 294.306C79.2038 265.256 95.2604 191.341 71.4679 141.519C52.8986 102.635 3.34741 78.3914 2.47005 35.3097C1.59315 -7.74882 55.106 -32.1736 67.0882 -73.5407C85.3742 -136.671 32.2795 -233.207 89.5751 -265.411C145.529 -296.861 195.543 -194.452 258.309 -181.019C310.603 -169.828 376.643 -233.286 414.796 -195.813C454.624 -156.694 398.804 -86.4308 410.247 -31.79C419.617 12.9592 477.643 40.9781 473.924 86.5465C470.211 132.048 424.889 161.178 391.923 192.761C358.568 224.717 324.287 254.762 281.136 271.25Z" stroke="#BA6C40" stroke-opacity="0.3" stroke-width="3"/>
<path opacity="0.0925" fill-rule="evenodd" clip-rule="evenodd" d="M280.378 263.43C229.947 280.707 169.013 310.678 124.686 281.064C78.7779 250.393 97.4043 177.083 75.3651 126.461C58.1642 86.9527 9.48923 60.9946 10.1159 17.9085C10.7423 -25.1544 65.075 -47.6967 78.4935 -88.6205C98.9717 -151.075 49.2784 -249.404 107.663 -279.589C164.681 -309.067 211.09 -204.975 273.349 -189.36C325.22 -176.351 393.435 -237.465 430.257 -198.683C468.696 -158.199 410.457 -89.926 419.986 -34.9191C427.789 10.1298 484.801 40.1567 479.495 85.5676C474.196 130.912 427.884 158.442 393.837 188.855C359.387 219.628 324.078 248.459 280.378 263.43Z" stroke="#BA6C40" stroke-opacity="0.3" stroke-width="3"/>
<path opacity="0.05125" fill-rule="evenodd" clip-rule="evenodd" d="M279.894 255.589C228.89 271.095 166.947 298.922 123.681 267.778C78.871 235.524 100.045 162.909 79.7854 111.549C63.9738 71.4637 16.2344 43.8227 18.3644 0.784744C20.4933 -42.2301 75.5796 -62.8625 90.4182 -103.293C113.063 -164.994 66.8321 -264.999 126.234 -293.127C184.246 -320.598 226.995 -214.949 288.671 -197.171C340.057 -182.359 410.362 -241.056 445.808 -201.012C482.811 -159.211 422.225 -93.0123 429.828 -37.7065C436.055 7.58738 491.984 39.5857 485.096 84.7837C478.218 129.916 430.974 155.813 395.886 185.019C360.382 214.571 324.089 242.152 279.894 255.589Z" stroke="#BA6C40" stroke-opacity="0.3" stroke-width="3"/>
<path opacity="0.01" fill-rule="evenodd" clip-rule="evenodd" d="M279.683 247.736C228.169 261.454 165.293 287.101 123.14 254.467C79.4829 220.668 103.178 148.836 84.7235 96.8002C70.3204 56.1879 23.5748 26.8977 27.2055 -16.0397C30.8343 -58.9541 86.6071 -77.6514 102.848 -117.539C127.632 -178.413 84.9194 -279.97 145.267 -306.008C204.202 -331.437 243.237 -224.361 304.256 -204.441C355.093 -187.845 427.405 -244.052 461.432 -202.796C496.953 -159.729 434.094 -95.6851 439.762 -40.1476C444.404 5.33594 499.183 39.2667 490.721 84.1967C482.273 129.061 434.153 153.294 398.067 181.258C361.554 209.553 324.321 235.85 279.683 247.736Z" stroke="#BA6C40" stroke-opacity="0.3" stroke-width="3"/>
</g>
</svg>
