<svg width="36" height="34" viewBox="0 0 36 34" fill="none" xmlns="http://www.w3.org/2000/svg">
<g clip-path="url(#clip0_4973_19274)">
<path d="M35.1661 0L19.7188 11.5146L22.5913 4.72866L35.1661 0Z" fill="#E17726"/>
<path d="M0.871094 0.0136719L13.4122 4.72963L16.1398 11.6045L0.871094 0.0136719Z" fill="#E27625"/>
<path d="M28.9482 24.4883L35.7757 24.6192L33.3896 32.7852L25.0586 30.4744L28.9482 24.4883Z" fill="#E27625"/>
<path d="M7.05166 24.4883L10.9269 30.4744L2.60986 32.7853L0.238281 24.6192L7.05166 24.4883Z" fill="#E27625"/>
<path d="M15.7692 9.85352L16.0483 18.932L7.69922 18.5493L10.074 14.94L10.1041 14.9052L15.7692 9.85352Z" fill="#E27625"/>
<path d="M20.1441 9.75195L25.8956 14.9053L25.9254 14.9398L28.3002 18.5491L19.9531 18.9317L20.1441 9.75195Z" fill="#E27625"/>
<path d="M11.1704 24.5146L15.7293 28.093L10.4336 30.6687L11.1704 24.5146Z" fill="#E27625"/>
<path d="M24.8288 24.5137L25.5503 30.6683L20.2695 28.0923L24.8288 24.5137Z" fill="#E27625"/>
<path d="M20.3867 27.7559L25.7455 30.3699L20.7608 32.7565L20.8125 31.1791L20.3867 27.7559Z" fill="#D5BFB2"/>
<path d="M15.6103 27.7568L15.2012 31.1531L15.2347 32.7544L10.2383 30.3697L15.6103 27.7568Z" fill="#D5BFB2"/>
<path d="M14.0627 20.1162L15.463 23.081L10.6953 21.674L14.0627 20.1162Z" fill="#233447"/>
<path d="M21.9351 20.1172L25.3183 21.6746L20.5352 23.0812L21.9351 20.1172Z" fill="#233447"/>
<path d="M11.5341 24.4844L10.7634 30.865L6.63281 24.6239L11.5341 24.4844Z" fill="#CC6228"/>
<path d="M24.4648 24.4844L29.3662 24.6239L25.2201 30.8652L24.4648 24.4844Z" fill="#CC6228"/>
<path d="M28.4229 18.1885L24.8558 21.8507L22.1057 20.5846L20.789 23.3732L19.9258 18.5779L28.4229 18.1885Z" fill="#CC6228"/>
<path d="M7.57812 18.1885L16.0767 18.578L15.2135 23.3732L13.8965 20.585L11.1608 21.8508L7.57812 18.1885Z" fill="#CC6228"/>
<path d="M7.33594 17.4365L11.3716 21.562L11.5115 25.6347L7.33594 17.4365Z" fill="#E27525"/>
<path d="M28.6674 17.4297L24.4844 25.6426L24.6419 21.5625L28.6674 17.4297Z" fill="#E27525"/>
<path d="M15.8794 17.6875L16.0418 18.7174L16.4432 21.2831L16.1852 29.1634L14.9652 22.8331L14.9648 22.7676L15.8794 17.6875Z" fill="#E27525"/>
<path d="M20.1198 17.6738L21.0368 22.7682L21.0364 22.8336L19.8134 29.1798L19.765 27.5924L19.5742 21.237L20.1198 17.6738Z" fill="#E27525"/>
<path d="M25.0006 21.3984L24.864 24.937L20.6067 28.2785L19.7461 27.6659L20.7108 22.6601L25.0006 21.3984Z" fill="#F5841F"/>
<path d="M11.0117 21.3984L15.2867 22.6601L16.2514 27.6659L15.3907 28.2784L11.1332 24.9366L11.0117 21.3984Z" fill="#F5841F"/>
<path d="M9.42578 29.5879L14.8725 32.1877L14.8494 31.0776L15.3051 30.6746H20.6958L21.1681 31.0762L21.1333 32.1856L26.5454 29.5945L23.9119 31.7868L20.7273 33.9903H15.2615L12.079 31.7778L9.42578 29.5879Z" fill="#C0AC9D"/>
<path d="M19.9986 27.4092L20.7687 27.9572L21.22 31.5845L20.5669 31.029H15.4375L14.7969 31.5957L15.2333 27.9575L16.0037 27.4092H19.9986Z" fill="#161616"/>
<path d="M34.1473 0.318359L36.0015 5.92234L34.8435 11.5885L35.6681 12.2294L34.5523 13.087L35.3909 13.7394L34.2805 14.7582L34.9622 15.2556L33.153 17.3842L25.7322 15.2076L25.6679 15.1729L20.3203 10.6284L34.1473 0.318359Z" fill="#763E1A"/>
<path d="M1.85428 0.318359L15.6813 10.6284L10.3338 15.1729L10.2694 15.2076L2.84861 17.3842L1.03939 15.2556L1.72059 14.7586L0.610666 13.7394L1.44767 13.0877L0.315188 12.2276L1.17089 11.5864L0 5.92255L1.85428 0.318359Z" fill="#763E1A"/>
<path d="M25.3679 14.7324L33.2307 17.0386L35.7852 24.9699L29.0459 24.9699L24.4023 25.0289L27.7793 18.3978L25.3679 14.7324Z" fill="#F5841F"/>
<path d="M10.6336 14.7324L8.22167 18.3978L11.5991 25.0289L6.95781 24.9699H0.230469L2.77063 17.0386L10.6336 14.7324Z" fill="#F5841F"/>
<path d="M22.9753 4.69043L20.776 10.6743L20.3093 18.7579L20.1307 21.2915L20.1166 27.7639H15.8822L15.8684 21.3037L15.6893 18.7556L15.2223 10.6743L13.0234 4.69043H22.9753Z" fill="#F5841F"/>
</g>
<defs>
<clipPath id="clip0_4973_19274">
<rect width="36" height="34" fill="white"/>
</clipPath>
</defs>
</svg>
