<svg width="36" height="29" viewBox="0 0 36 29" fill="none" xmlns="http://www.w3.org/2000/svg">
<path d="M35.2696 3.76169C33.9956 4.32869 32.6236 4.70669 31.1886 4.88169C32.6586 3.99969 33.7786 2.60669 34.3106 0.954687C32.9386 1.75969 31.4196 2.35469 29.8026 2.66969C28.5076 1.29069 26.6596 0.429688 24.6156 0.429688C20.6886 0.429688 17.5106 3.60769 17.5106 7.53469C17.5106 8.09469 17.5736 8.63369 17.6926 9.15169C11.7916 8.85769 6.55562 6.02969 3.04863 1.73169C2.43963 2.78169 2.08963 3.99969 2.08963 5.30169C2.08963 7.76569 3.34263 9.94269 5.24663 11.2167C4.08463 11.1817 2.98563 10.8597 2.02662 10.3277C2.02662 10.3557 2.02662 10.3837 2.02662 10.4187C2.02662 13.8627 4.47662 16.7327 7.72462 17.3837C7.12962 17.5447 6.49963 17.6357 5.85563 17.6357C5.40063 17.6357 4.95263 17.5937 4.51863 17.5097C5.42163 20.3307 8.04662 22.3887 11.1546 22.4447C8.72563 24.3487 5.65963 25.4827 2.33463 25.4827C1.76063 25.4827 1.19363 25.4477 0.640625 25.3847C3.78363 27.4007 7.52163 28.5767 11.5326 28.5767C24.6016 28.5767 31.7486 17.7547 31.7486 8.36069C31.7486 8.05269 31.7416 7.74469 31.7276 7.44369C33.1136 6.43569 34.3176 5.18269 35.2696 3.76169Z" fill="white"/>
</svg>
